<?xml version="1.0" standalone="no"?>
<!DOCTYPE svg PUBLIC "-//W3C//DTD SVG 20010904//EN"
 "http://www.w3.org/TR/2001/REC-SVG-20010904/DTD/svg10.dtd">
<svg version="1.0" xmlns="http://www.w3.org/2000/svg"
 width="1200.000000pt" height="1200.000000pt" viewBox="0 0 1200.000000 1200.000000"
 preserveAspectRatio="xMidYMid meet">
<metadata>
Created by potrace 1.14, written by Peter Selinger 2001-2017
</metadata>
<g transform="translate(0.000000,1200.000000) scale(0.100000,-0.100000)"
fill="#000000" stroke="none">
<path d="M4929 8106 c-2 -2 -37 -7 -78 -10 -40 -4 -76 -8 -80 -10 -3 -2 -27
-7 -53 -10 -116 -16 -273 -80 -376 -153 -167 -119 -392 -396 -534 -659 -83
-154 -180 -376 -229 -529 -11 -33 -24 -69 -29 -80 -11 -25 -60 -187 -60 -201
0 -7 111 -10 192 -5 11 1 31 30 56 79 97 195 173 307 292 432 161 170 406 266
730 287 114 8 747 10 753 3 3 -3 1 -32 -4 -65 -8 -57 -14 -102 -24 -190 -3
-22 -7 -56 -10 -75 -2 -19 -9 -71 -14 -115 -21 -164 -23 -180 -26 -195 -2 -8
-6 -46 -11 -85 -4 -38 -8 -72 -9 -75 -1 -3 -5 -34 -9 -70 -5 -36 -10 -72 -11
-80 -2 -8 -6 -44 -10 -80 -3 -36 -8 -72 -10 -80 -2 -8 -7 -40 -10 -70 -5 -46
-22 -186 -40 -315 -2 -16 -7 -57 -11 -90 -3 -33 -8 -69 -10 -80 -3 -11 -7 -42
-9 -70 -3 -27 -8 -68 -11 -90 -9 -62 -12 -85 -19 -155 -4 -36 -8 -76 -10 -90
-2 -14 -7 -56 -10 -95 -4 -38 -8 -81 -10 -95 -3 -22 -9 -81 -20 -205 -36 -412
-50 -919 -32 -1130 34 -385 176 -689 402 -861 121 -92 293 -166 445 -190 14
-2 52 -8 85 -13 95 -15 377 -7 470 13 113 25 241 75 337 132 106 63 265 220
340 334 129 198 234 461 293 740 24 114 37 182 41 215 3 22 9 64 15 94 17 98
24 92 -98 89 l-108 -3 -17 -84 c-63 -305 -193 -494 -396 -576 -72 -29 -104
-35 -222 -41 -66 -4 -118 -1 -170 10 -159 33 -328 147 -382 257 -26 53 -62
166 -72 224 -3 17 -10 57 -15 90 -26 150 -36 324 -35 640 0 236 9 515 19 625
2 19 6 73 10 120 3 47 7 101 10 120 4 35 12 114 20 200 3 25 7 68 10 95 6 55
12 113 20 193 3 28 7 73 10 100 2 26 7 72 10 102 3 30 7 75 10 100 3 25 8 70
10 100 3 30 7 71 10 90 2 19 7 67 10 105 7 80 12 131 19 195 3 25 8 74 11 110
4 36 8 76 10 90 2 14 7 59 10 100 4 41 8 77 10 80 2 3 384 5 849 5 561 0 846
3 847 10 1 13 1 805 0 828 -1 16 -77 17 -1535 17 -843 0 -1535 -2 -1537 -4z"/>
</g>
</svg>
